<svg xmlns="http://www.w3.org/2000/svg" xmlns:xlink="http://www.w3.org/1999/xlink" viewBox="0 0 273.55 406.61"><defs><style>.cls-1{fill:#fff;}.cls-2{fill:url(#linear-gradient);}.cls-3{fill:#516cb4;}.cls-4{fill:url(#linear-gradient-2);}.cls-5{fill:#06b3bb;}.cls-6{isolation:isolate;}.cls-7{fill:none;stroke:#42145f;stroke-miterlimit:10;stroke-width:2px;}.cls-8{fill:#f5f3f7;}.cls-9{fill:#2bbec5;}</style><linearGradient id="linear-gradient" x1="125.83" y1="145.49" x2="274.19" y2="427.09" gradientUnits="userSpaceOnUse"><stop offset="0" stop-color="#f5f3f7"/><stop offset="1" stop-color="#714f87"/></linearGradient><linearGradient id="linear-gradient-2" x1="104.85" y1="207.74" x2="664.47" y2="327.73" gradientTransform="translate(277.56 -38.09) rotate(59.84)" gradientUnits="userSpaceOnUse"><stop offset="0" stop-color="#fff" stop-opacity="0.25"/><stop offset="1" stop-color="#42145f" stop-opacity="0.75"/></linearGradient></defs><title>clock</title><g id="Layer_2" data-name="Layer 2"><g id="Layer_4" data-name="Layer 4"><polygon class="cls-1" points="216.58 0 272.84 32.71 56.27 157.75 0 125.04 216.58 0"/><polygon class="cls-2" points="272.84 32.71 273.55 281.57 56.97 406.61 56.27 157.75 272.84 32.71"/><path class="cls-3" d="M139.78,322.2c-28.67,0-47.27-22.95-47.37-58.47-.06-23.4,7.73-49.84,21.94-74.45s33.23-44.63,53.59-56.38c12.5-7.22,24.62-10.88,36-10.88,28.68,0,47.27,23,47.37,58.47.07,23.41-7.72,49.85-21.93,74.46s-33.23,44.62-53.59,56.37C163.32,318.54,151.2,322.2,139.78,322.2Z"/><ellipse class="cls-1" cx="171.88" cy="222.11" rx="101.56" ry="58.83" transform="translate(-106.52 259.12) rotate(-59.84)"/><ellipse class="cls-4" cx="171.88" cy="222.11" rx="101.56" ry="58.83" transform="translate(-106.52 259.12) rotate(-59.84)"/><path class="cls-5" d="M215.61,131.12c15.64,6.18,25.61,23.14,25.68,48.47.13,45.73-32,101.42-71.81,124.39-16.53,9.54-31.78,11.94-44,8.2,12.59,5,28.85,3,46.59-7.28,39.8-23,71.95-78.66,71.82-124.39C243.85,153.78,232.76,136.38,215.61,131.12Z"/><polygon class="cls-5" points="173.03 284.19 173.06 297.12 171.13 298.24 171.09 285.31 173.03 284.19"/><g class="cls-6"><polygon class="cls-5" points="200.12 259.58 205.78 267.54 204.11 269.61 198.45 261.66 200.12 259.58"/><polygon class="cls-5" points="203.74 137.61 205.42 137.76 199.82 152.21 198.14 152.06 203.74 137.61"/><polygon class="cls-5" points="172.64 145.99 172.67 158.92 170.73 160.04 170.7 147.1 172.64 145.99"/><polygon class="cls-5" points="237.64 183.02 237.65 185.26 226.39 191.76 226.38 189.53 237.64 183.02"/><polygon class="cls-5" points="143.94 292.02 145.62 292.16 140.02 306.61 138.34 306.47 143.94 292.02"/><polygon class="cls-5" points="124.28 280 125.25 281.37 115.52 293.46 114.54 292.09 124.28 280"/><polygon class="cls-5" points="117.37 252.47 117.38 254.7 106.12 261.2 106.11 258.96 117.37 252.47"/><polygon class="cls-5" points="115.3 215.96 125.07 216.8 124.1 219.3 114.33 218.46 115.3 215.96"/><polygon class="cls-5" points="139.65 174.61 145.31 182.56 143.63 184.65 137.97 176.7 139.65 174.61"/></g><polygon class="cls-5" points="228.24 150.76 229.21 152.13 219.49 164.23 218.51 162.86 228.24 150.76"/><polygon class="cls-5" points="219.66 224.93 229.42 225.77 228.46 228.26 218.69 227.42 219.66 224.93"/><line class="cls-7" x1="171.68" y1="222.11" x2="201.78" y2="242.58"/><path class="cls-5" d="M166.91,225.74a2.7,2.7,0,0,1-1.15-2.51,8.54,8.54,0,0,1,3.89-6.73,2.77,2.77,0,0,1,2.76-.28l2.21,1.13L169.33,227Z"/><line class="cls-7" x1="171.78" y1="216.52" x2="171.78" y2="168.44"/><ellipse class="cls-3" cx="171.88" cy="222.11" rx="5.5" ry="3.18" transform="translate(-106.52 259.12) rotate(-59.84)"/><polygon class="cls-8" points="56.97 406.61 0.71 373.9 0 125.04 56.27 157.75 56.97 406.61"/><path class="cls-5" d="M86.39,120.4l0,0L81,109.79,64.5,111,48,109.79l-5.41,10.59h0c-2.32,4.52-.39,9.63,5.81,13.21,9,5.17,23.45,5.18,32.35,0C86.88,130,88.75,124.92,86.39,120.4Z"/><path class="cls-3" d="M86.43,120.38,81,109.79,64.5,111v26.51a33,33,0,0,0,16.23-3.87c6.15-3.58,8-8.68,5.66-13.2Z"/><path class="cls-9" d="M76.62,105.55c6.73,3.89,6.77,10.2.08,14.09s-17.58,3.88-24.31,0-6.78-10.19-.09-14.08S69.87,101.66,76.62,105.55Z"/><path class="cls-5" d="M230,38.08l0,0-5.41-10.59-16.52,1.18L191.6,27.46l-5.41,10.59h0c-2.32,4.53-.39,9.63,5.81,13.21,9,5.17,23.45,5.18,32.35,0C230.5,47.7,232.37,42.6,230,38.08Z"/><path class="cls-3" d="M230.05,38.05l-5.41-10.59-16.52,1.18v26.5a32.77,32.77,0,0,0,16.23-3.87c6.15-3.57,8-8.67,5.66-13.19Z"/><path class="cls-9" d="M220.24,23.23c6.73,3.88,6.77,10.19.07,14.08s-17.57,3.88-24.3,0-6.78-10.2-.09-14.08S213.49,19.33,220.24,23.23Z"/></g></g></svg>