<svg xmlns="http://www.w3.org/2000/svg" xmlns:xlink="http://www.w3.org/1999/xlink" viewBox="0 0 683.22 424.15"><defs><style>.cls-1,.cls-11,.cls-14,.cls-26,.cls-34,.cls-42{fill:none;}.cls-2{fill:#00b0bc;}.cls-3{fill:#4a6cb8;}.cls-4{fill:#26bcc6;}.cls-5{fill:#4a6cb7;}.cls-6{fill:#6581c3;}.cls-7{fill:#f8f4fa;}.cls-8{fill:url(#linear-gradient);}.cls-9{fill:url(#New_Gradient_Swatch);}.cls-10{fill:#00bfc8;}.cls-11{stroke:#7a2296;stroke-width:2px;}.cls-11,.cls-14,.cls-26,.cls-34,.cls-42{stroke-miterlimit:10;}.cls-12{fill:#33c0c9;}.cls-13{fill:#fff;}.cls-14,.cls-26{stroke:#fff;}.cls-14{stroke-width:1.3px;}.cls-15{fill:#42145f;}.cls-16{fill:#490b63;}.cls-17{fill:url(#New_Gradient_Swatch-2);}.cls-18{fill:url(#New_Gradient_Swatch-3);}.cls-19{fill:url(#New_Gradient_Swatch-4);}.cls-20{fill:url(#New_Gradient_Swatch-5);}.cls-21{fill:url(#New_Gradient_Swatch-6);}.cls-22{fill:url(#New_Gradient_Swatch-7);}.cls-23{fill:url(#New_Gradient_Swatch-8);}.cls-24{fill:url(#New_Gradient_Swatch-9);}.cls-25{fill:url(#New_Gradient_Swatch-10);}.cls-26{stroke-width:0.75px;}.cls-27{fill:url(#New_Gradient_Swatch-11);}.cls-28{isolation:isolate;}.cls-29{fill:url(#New_Gradient_Swatch-12);}.cls-30{fill:url(#New_Gradient_Swatch-13);}.cls-31{fill:url(#New_Gradient_Swatch-14);}.cls-32{fill:#f8f3f8;}.cls-33{clip-path:url(#clip-path);}.cls-34{stroke:#00b0bc;}.cls-35{fill:#00afbb;}.cls-36{fill:url(#New_Gradient_Swatch-15);}.cls-37{fill:url(#New_Gradient_Swatch-16);}.cls-38{fill:url(#New_Gradient_Swatch-17);}.cls-39{fill:#f2fbfc;}.cls-40{fill:url(#New_Gradient_Swatch-18);}.cls-41{fill:url(#New_Gradient_Swatch-19);}.cls-42{stroke:#944eab;}</style><linearGradient id="linear-gradient" x1="403.92" y1="72.44" x2="488.4" y2="112.76" gradientUnits="userSpaceOnUse"><stop offset="0" stop-color="#f6f3f7"/><stop offset="1" stop-color="#77488a"/></linearGradient><linearGradient id="New_Gradient_Swatch" x1="374.21" y1="24.19" x2="455.47" y2="71.18" xlink:href="#linear-gradient"/><linearGradient id="New_Gradient_Swatch-2" x1="172.09" y1="253.69" x2="190.39" y2="270.26" xlink:href="#linear-gradient"/><linearGradient id="New_Gradient_Swatch-3" x1="141.56" y1="213.71" x2="189.64" y2="271.16" xlink:href="#linear-gradient"/><linearGradient id="New_Gradient_Swatch-4" x1="104.02" y1="109.06" x2="152.31" y2="162.15" xlink:href="#linear-gradient"/><linearGradient id="New_Gradient_Swatch-5" x1="93.35" y1="164.89" x2="107.2" y2="164.89" xlink:href="#linear-gradient"/><linearGradient id="New_Gradient_Swatch-6" x1="79.08" y1="180.76" x2="92.92" y2="180.76" xlink:href="#linear-gradient"/><linearGradient id="New_Gradient_Swatch-7" x1="122.92" y1="193.45" x2="162.11" y2="218.82" xlink:href="#linear-gradient"/><linearGradient id="New_Gradient_Swatch-8" x1="142.75" y1="154.77" x2="178.98" y2="191.48" xlink:href="#linear-gradient"/><linearGradient id="New_Gradient_Swatch-9" x1="142.27" y1="200.9" x2="174.15" y2="235" xlink:href="#linear-gradient"/><linearGradient id="New_Gradient_Swatch-10" x1="117.95" y1="118.44" x2="166.07" y2="171.68" xlink:href="#linear-gradient"/><linearGradient id="New_Gradient_Swatch-11" x1="547.95" y1="139.63" x2="573.9" y2="157.06" xlink:href="#linear-gradient"/><linearGradient id="New_Gradient_Swatch-12" x1="486.23" y1="62.62" x2="573.36" y2="62.62" xlink:href="#linear-gradient"/><linearGradient id="New_Gradient_Swatch-13" x1="500.12" y1="79.73" x2="564.63" y2="79.73" xlink:href="#linear-gradient"/><linearGradient id="New_Gradient_Swatch-14" x1="514.1" y1="96.95" x2="555.81" y2="96.95" xlink:href="#linear-gradient"/><clipPath id="clip-path"><polygon class="cls-1" points="297.65 161.63 272.01 176.52 246.21 161.63 271.84 146.73 297.65 161.63"/></clipPath><linearGradient id="New_Gradient_Swatch-15" x1="247.46" y1="52.88" x2="319.73" y2="110.33" xlink:href="#linear-gradient"/><linearGradient id="New_Gradient_Swatch-16" x1="283.01" y1="234.62" x2="338" y2="260.87" xlink:href="#linear-gradient"/><linearGradient id="New_Gradient_Swatch-17" x1="299.19" y1="176.86" x2="354.18" y2="203.1" xlink:href="#linear-gradient"/><linearGradient id="New_Gradient_Swatch-18" x1="404.85" y1="200.74" x2="469.41" y2="200.74" xlink:href="#linear-gradient"/><linearGradient id="New_Gradient_Swatch-19" x1="401.91" y1="156.69" x2="467.33" y2="156.69" xlink:href="#linear-gradient"/></defs><title>main_illo</title><g id="Layer_2" data-name="Layer 2"><g id="NatWest-longform_1-sustainability-desktop"><path class="cls-2" d="M0,299.92H0V271.78l58-11.31L451.36,33.26c10.28-5.94,26.88-5.94,37.09,0l165.18,96,29.59-5.78v29.27h0c0,3.9-2.6,7.79-7.74,10.76L231.86,419.71c-10.28,5.93-26.89,5.93-37.1,0L7.62,311C2.39,307.91-.13,303.9,0,299.92Z"/><path class="cls-3" d="M213.05,170.9V424.15c-6.63,0-13.24-1.52-18.29-4.45L7.62,311c-5.23-3-7.75-7.05-7.59-11H0V271.78l58-11.31Z"/><path class="cls-4" d="M7.75,260.66c-10.28,5.93-10.34,15.55-.13,21.48L194.76,390.89c10.21,5.94,26.82,5.94,37.1,0L675.48,134.69c10.28-5.93,10.32-15.55.11-21.49L488.45,4.45c-10.21-5.93-26.81-5.93-37.09,0Z"/><polygon class="cls-5" points="66.7 243.54 261.85 356.94 632.51 142.72 437.37 29.31 66.7 243.54"/><polygon class="cls-6" points="488.6 95.37 403.36 143.94 336.35 106.09 421.58 57.53 488.6 95.37"/><polygon class="cls-7" points="421.58 16.97 421.58 61.93 460.43 39.48 421.58 16.97"/><polygon class="cls-2" points="426.72 25.89 426.72 55.73 464.53 77.45 464.42 47.67 426.72 25.89"/><polygon class="cls-8" points="469.66 39.49 400.6 79.4 400.74 135.26 469.66 95.43 469.66 39.49"/><polygon class="cls-7" points="352.67 51.7 352.67 107.64 400.74 135.26 400.6 79.4 352.67 51.7"/><polygon class="cls-2" points="357.8 60.62 357.8 90.46 395.61 112.18 395.5 82.41 357.8 60.62"/><polygon class="cls-3" points="384.16 25.94 384.16 40.05 387.46 40.05 387.46 25.94 385.81 24.28 384.16 25.94"/><polygon class="cls-9" points="361.88 51.69 400.6 74.06 421.58 61.93 421.58 16.97 361.88 51.69"/><path class="cls-3" d="M407.32,58.7h-4l1.37,3.79a.32.32,0,0,0,.16.19,1,1,0,0,0,.9,0,.32.32,0,0,0,.16-.19Z"/><path class="cls-10" d="M408.59,57.74a1.61,1.61,0,0,1-.95,1.33,5.08,5.08,0,0,1-4.59,0,1.62,1.62,0,0,1-1-1.33V53h6.5Z"/><polygon class="cls-2" points="445.74 30.93 435.54 25.03 435.54 33.44 445.74 39.32 445.74 30.93"/><polygon class="cls-3" points="446.94 31.64 445.74 30.93 445.74 39.32 446.94 38.79 446.94 31.64"/><line class="cls-11" x1="444.7" y1="32.35" x2="384.99" y2="67.06"/><line class="cls-11" x1="437.36" y1="28.78" x2="378.73" y2="62.87"/><polygon class="cls-2" points="405.34 46.15 396.9 41.27 396.9 51.13 405.34 55.98 405.34 46.15"/><polygon class="cls-12" points="413.79 41.27 405.34 36.38 396.9 41.3 405.34 46.15 413.79 41.27"/><polygon class="cls-3" points="405.34 46.15 413.79 41.27 413.79 51.13 405.34 55.98 405.34 46.15"/><polygon class="cls-7" points="462.79 49.02 407.47 80.99 407.58 104.55 438.01 108.14 462.79 93.82 462.79 49.02"/><polygon class="cls-12" points="462.79 76.45 462.79 49.02 438.98 62.77 462.79 76.45"/><polygon class="cls-13" points="462.79 93.82 462.79 91.36 426.21 70.16 407.47 80.99 407.58 104.55 438.01 108.14 462.79 93.82"/><polygon class="cls-3" points="440.02 91.69 416.34 105.59 407.58 104.55 438.16 87.37 440.02 91.69"/><polygon class="cls-12" points="417.98 74.91 438.16 87.37 407.58 104.55 407.58 80.99 417.98 74.91"/><path class="cls-13" d="M421.58,11.62,352.66,51.7,400.6,79.4l69.06-39.91Zm-21,62.44L361.88,51.69,421.59,17l38.84,22.51Z"/><path class="cls-3" d="M402,23.23c-3.29-4.73-8.68-7.22-12.8-5.92-3.28,1-5.16,4.16-5.16,8.58h3.31c0-2.07.49-4.69,2.84-5.43s6.31.65,9.1,4.66c4.1,5.86,4.45,11.14,4.46,16.08v.07a.8.8,0,0,0,.48.63,2.52,2.52,0,0,0,2.33,0,.81.81,0,0,0,.47-.63v-.09C407,35.94,406.6,29.89,402,23.23Z"/><ellipse class="cls-14" cx="138.6" cy="318.1" rx="25.74" ry="14.91" transform="translate(-0.9 0.39) rotate(-0.16)"/><path class="cls-15" d="M558.09,62.81c-2.73,1.57-2.76,4.13,0,5.72a10.93,10.93,0,0,0,9.87,0c2.73-1.58,2.75-4.15,0-5.72A10.86,10.86,0,0,0,558.09,62.81Z"/><path class="cls-16" d="M79.29,336.94v4.59a1.55,1.55,0,0,0,.78,1.35l41.33,24a.75.75,0,0,0,1.13-.65v-4.77a1.13,1.13,0,0,0-.57-1L80.37,336.32A.72.72,0,0,0,79.29,336.94Z"/><polygon class="cls-6" points="212.13 244.91 151.83 279.95 91.13 244.91 151.43 209.86 212.13 244.91"/><polygon class="cls-13" points="105.17 239.27 151.63 266.27 198.39 239.27 151.94 212.27 105.17 239.27"/><polygon class="cls-7" points="105.17 239.27 105.17 246.4 151.63 273.4 151.63 266.27 105.17 239.27"/><polygon class="cls-17" points="198.39 239.27 198.39 246.4 151.63 273.4 151.63 266.27 198.39 239.27"/><path class="cls-18" d="M136.64,236.14c0,2.24,1.46,4.49,4.4,6.2,5.9,3.42,15.48,3.42,21.42,0,3-1.71,4.45-4,4.46-6.2V213.67H136.64Z"/><path class="cls-7" d="M151.61,100.79c-1.19-.68-2.82-.58-4.62.46-.28.17-.55.35-.82.55l-59.31,39a11.23,11.23,0,0,0-5.09,8.82,4,4,0,0,0,.94,2.85L89,156.32l68.72-51.88Z"/><path class="cls-19" d="M92.91,144.46l59.31-39c.27-.19.54-.38.82-.54,3.6-2.08,6.53-.4,6.54,3.73a14.32,14.32,0,0,1-6.5,11.24L92.94,156.2c-2.82,1.63-5.12.32-5.13-2.92A11.21,11.21,0,0,1,92.91,144.46Z"/><path class="cls-5" d="M153.05,107.05a10.17,10.17,0,0,0-4.61,8c0,2.93,2.08,4.12,4.64,2.64a10.16,10.16,0,0,0,4.61-8C157.68,106.77,155.6,105.58,153.05,107.05Z"/><path class="cls-3" d="M92.91,147a6.28,6.28,0,0,0-2.85,5c0,1.81,1.29,2.55,2.87,1.63a6.29,6.29,0,0,0,2.86-4.94C95.78,146.86,94.5,146.12,92.91,147Z"/><polygon class="cls-7" points="79.59 157.47 93.35 165.47 107.2 157.47 93.44 149.48 79.59 157.47"/><polygon class="cls-7" points="79.59 157.47 79.59 164.32 93.35 172.32 93.35 165.47 79.59 157.47"/><polygon class="cls-20" points="107.2 157.47 107.2 164.32 93.35 172.32 93.35 165.47 107.2 157.47"/><polygon class="cls-12" points="21.58 158.66 54.96 178.06 88.56 158.66 55.18 139.26 21.58 158.66"/><polygon class="cls-13" points="59.81 164.31 69.23 169.8 74.3 166.91 64.88 161.41 59.81 164.31"/><polygon class="cls-5" points="21.58 158.65 21.58 192.42 54.96 211.81 54.96 178.05 21.58 158.65"/><polygon class="cls-2" points="88.56 158.66 88.56 192.41 54.96 211.81 54.96 178.06 88.56 158.66"/><polygon class="cls-7" points="74.3 166.91 74.3 176.75 69.23 179.64 69.23 169.8 74.3 166.91"/><polygon class="cls-13" points="36.02 150.3 45.44 155.79 50.51 152.9 41.09 147.41 36.02 150.3"/><polygon class="cls-13" points="77.55 181.53 79.08 182.42 92.92 172.25 88.56 169.72 88.56 173.61 77.55 181.53"/><polygon class="cls-7" points="77.55 181.53 77.55 188.38 79.08 189.26 79.08 182.42 77.55 181.53"/><polygon class="cls-21" points="92.92 172.25 92.92 181.27 79.08 189.26 79.08 182.42 92.92 172.25"/><path class="cls-13" d="M153.91,180.14c-2-1.12-4.7-.95-7.7.78-.94.55-27.34,19.91-27.34,19.91-4.67,2.69-8.45,9.23-8.43,14.59,0,2.69,1,4.57,2.49,5.44l5.5,3.32s42.49-39.6,42.14-39.9S153.91,180.14,153.91,180.14Z"/><path class="cls-22" d="M124.59,204.28s26.41-19.36,27.34-19.9c6-3.47,10.9-.68,10.92,6.22S158,205.92,152,209.39l-27.35,14.32c-4.67,2.7-8.47.54-8.49-4.83S119.92,207,124.59,204.28Z"/><path class="cls-3" d="M153,188.32a14.29,14.29,0,0,0-6.49,11.25c0,4.13,2.94,5.79,6.53,3.72a14.32,14.32,0,0,0,6.5-11.25C159.57,187.91,156.64,186.24,153,188.32Z"/><path class="cls-5" d="M125,210.47A8.32,8.32,0,0,0,121.2,217c0,2.39,1.7,3.36,3.79,2.16a8.33,8.33,0,0,0,3.77-6.52C128.75,210.24,127.05,209.27,125,210.47Z"/><path class="cls-7" d="M126.79,229.33l-6.64-4A8.3,8.3,0,0,1,116.4,216l28.69-104.53,9.5-5.83,14.15,8.1-19.38,84.91Z"/><polygon class="cls-23" points="136.64 215.94 159.14 119.48 145.12 111.46 154.59 105.64 168.74 113.75 149.36 198.66 136.64 215.94"/><polygon class="cls-7" points="145.12 111.46 152.15 115.48 159.14 119.48 167.91 114.17 161.45 109.57 154.59 105.64 145.12 111.46"/><path class="cls-13" d="M167.77,188.61c-2-1.12-4.7-1-7.7.78-.94.54-27.35,19.9-27.35,19.9-4.67,2.7-8.44,9.23-8.42,14.6,0,2.68,1,4.57,2.49,5.44l5.5,3.31s42.49-39.6,42.14-39.89S167.77,188.61,167.77,188.61Z"/><path class="cls-24" d="M138.45,212.75s26.4-19.36,27.34-19.9c6-3.47,10.9-.69,10.92,6.22s-4.84,15.31-10.85,18.78L138.5,232.18c-4.67,2.7-8.46.53-8.48-4.83S133.78,215.45,138.45,212.75Z"/><path class="cls-3" d="M166.9,196.79A14.29,14.29,0,0,0,160.41,208c0,4.14,2.94,5.8,6.53,3.73a14.33,14.33,0,0,0,6.5-11.25C173.43,196.38,170.5,194.71,166.9,196.79Z"/><path class="cls-3" d="M138.82,218.94a8.32,8.32,0,0,0-3.76,6.53c0,2.39,1.7,3.36,3.79,2.15a8.26,8.26,0,0,0,3.76-6.52C142.61,218.71,140.91,217.73,138.82,218.94Z"/><path class="cls-7" d="M164.94,109.63c-1.19-.67-2.82-.57-4.62.47-.28.16-.55.35-.82.54l-59.31,39a11.21,11.21,0,0,0-5.09,8.82,4,4,0,0,0,.94,2.84l6.26,3.83L171,113.28Z"/><path class="cls-25" d="M106.23,153.3l59.32-39a8.27,8.27,0,0,1,.82-.54c3.6-2.08,6.53-.41,6.54,3.72a14.32,14.32,0,0,1-6.5,11.25l-60.14,36.35c-2.82,1.63-5.12.32-5.13-2.92A11.25,11.25,0,0,1,106.23,153.3Z"/><path class="cls-3" d="M166.38,115.9a10.13,10.13,0,0,0-4.61,8c0,2.94,2.08,4.12,4.64,2.65a10.17,10.17,0,0,0,4.61-8C171,115.61,168.93,114.42,166.38,115.9Z"/><path class="cls-3" d="M106.24,155.88a6.29,6.29,0,0,0-2.85,5c0,1.82,1.29,2.55,2.87,1.64a6.31,6.31,0,0,0,2.86-4.95C109.11,155.71,107.83,155,106.24,155.88Z"/><path class="cls-26" d="M118.1,155.13v5.15a6.31,6.31,0,0,1-3,5.4l-14.37,8.6a1.75,1.75,0,0,1-2.65-1.5V167"/><polygon class="cls-6" points="591.68 139.98 543.25 168.13 494.5 139.99 542.93 111.84 591.68 139.98"/><polygon class="cls-13" points="512.03 133.33 543.09 151.38 574.35 133.33 543.29 115.28 512.03 133.33"/><polygon class="cls-7" points="512.03 133.33 512.03 142.35 543.09 160.4 543.09 151.38 512.03 133.33"/><polygon class="cls-27" points="574.35 133.33 574.35 142.35 543.09 160.4 543.09 151.38 574.35 133.33"/><g class="cls-28"><path class="cls-13" d="M562.25,48.41c.9.37,1.79.78,2.66,1.21l5,1.66a41.23,41.23,0,0,0-7.61-2.87M539.31,37.54C529.64,38.9,520,42.74,510.68,49c-11.27,7.53-21.37,18.3-29.39,30.62l5.5,5.31,4.95,1.66c.29-.44.58-.89.86-1.34-.29.45-.58.89-.86,1.34l-4.95-1.66-5.5-5.31,4.94,1.67c8-12.32,18.12-23.09,29.39-30.62,9.35-6.25,19-10.09,28.61-11.45,1.29-.18,2.59-.32,3.89-.41a50.3,50.3,0,0,1,20.22,2.6,50.07,50.07,0,0,0-25.16-4.27c-1.29.09-2.58.23-3.87.41"/><path class="cls-13" d="M554.62,68.32c.52.24,1,.51,1.54.8l5,1.67a23.05,23.05,0,0,0-6.49-2.47m-14.75-10.2a48.32,48.32,0,0,0-20.07,8.11c-9.51,6.35-18.06,15.91-24.62,26.78l5.54,5.35,4.94,1.67.39-.68-.39.68-4.94-1.67L495.18,93l4.94,1.67c6.57-10.87,15.12-20.43,24.62-26.78a48.45,48.45,0,0,1,20-8.11q1.29-.18,2.58-.27a32.87,32.87,0,0,1,13,1.59c-5.3-2.08-11.68-3.71-18-3.26q-1.27.09-2.55.27"/><path class="cls-13" d="M546.68,88.5a7,7,0,0,1,.55.54l4.95,1.67a6.87,6.87,0,0,0-1.69-1.37,7.26,7.26,0,0,0-3.81-.84m-6-9.81a28.4,28.4,0,0,0-11.71,4.78c-7.78,5.2-14.79,13.64-19.77,23l5.76,5.56,5,1.67.54-1.1c-.18.36-.37.73-.54,1.1l-5-1.67-5.76-5.56,5,1.67c5-9.39,12-17.83,19.76-23a28.25,28.25,0,0,1,11.52-4.79,15.31,15.31,0,0,1,7.15.58h0a23.23,23.23,0,0,0-2.14-1,17.62,17.62,0,0,0-9.76-1.26"/><path class="cls-29" d="M544.23,39.21c-9.66,1.36-19.26,5.2-28.61,11.45-11.27,7.53-21.37,18.3-29.39,30.62l5.51,5.3c.28-.45.57-.89.86-1.34,7.3-11.13,16.46-20.86,26.67-27.69a60.58,60.58,0,0,1,25.2-10.11c1.11-.15,2.23-.27,3.34-.35a43.44,43.44,0,0,1,14.44,1.32,41.23,41.23,0,0,1,7.61,2.87l3.5-7.79a47.85,47.85,0,0,0-5-2.09,50.3,50.3,0,0,0-20.22-2.6c-1.3.09-2.6.23-3.89.41"/><path class="cls-30" d="M544.78,59.79a48.45,48.45,0,0,0-20,8.11c-9.5,6.35-18.05,15.91-24.62,26.78l5.54,5.35.39-.68c5.89-10,13.67-18.76,22.35-24.56A40.22,40.22,0,0,1,545,68c.68-.09,1.36-.16,2-.21a26.23,26.23,0,0,1,7.57.51,23.05,23.05,0,0,1,6.49,2.47l3.52-7.85a30.08,30.08,0,0,0-4.25-1.83,32.87,32.87,0,0,0-13-1.59q-1.29.09-2.58.27"/><path class="cls-31" d="M545.38,80.35a28.25,28.25,0,0,0-11.52,4.79c-7.77,5.2-14.79,13.64-19.76,23l5.76,5.56c.17-.37.36-.74.54-1.1,4.3-8.44,10.48-16.16,17.12-20.6a20.15,20.15,0,0,1,8-3.44,11,11,0,0,1,1.13-.09,7.26,7.26,0,0,1,3.81.84,6.87,6.87,0,0,1,1.69,1.37l3.63-8.11a9.85,9.85,0,0,0-1.16-.73,13.82,13.82,0,0,0-2.12-.94,15.31,15.31,0,0,0-7.15-.58"/><polyline class="cls-32" points="481.29 79.61 486.79 84.92 491.74 86.58 486.23 81.28 481.29 79.61"/><polyline class="cls-32" points="495.18 93.01 500.72 98.36 505.66 100.03 500.12 94.68 495.18 93.01"/><polyline class="cls-32" points="509.15 106.5 514.91 112.06 519.86 113.73 514.1 108.17 509.15 106.5"/></g><polygon class="cls-6" points="314.24 161.99 272.07 186.5 229.62 161.99 271.79 137.48 314.24 161.99"/><polygon class="cls-7" points="297.65 163.54 272.01 178.44 246.21 163.54 246.21 161.63 297.65 161.63 297.65 163.54"/><polygon class="cls-13" points="297.65 161.63 272.01 176.52 246.21 161.63 271.84 146.73 297.65 161.63"/><g class="cls-33"><polyline class="cls-34" points="286.64 173.99 269.66 164.07 259.9 164.07"/><path class="cls-35" d="M260.25,163.38a.73.73,0,0,1,0,1.38,2.63,2.63,0,0,1-2.38,0c-.66-.38-.67-1,0-1.38A2.59,2.59,0,0,1,260.25,163.38Z"/><line class="cls-34" x1="289.93" y1="171.94" x2="263.23" y2="156.2"/><path class="cls-35" d="M264.29,155.51c.65.38.66,1,0,1.38a2.61,2.61,0,0,1-2.37,0c-.67-.39-.67-1,0-1.38A2.61,2.61,0,0,1,264.29,155.51Z"/><line class="cls-34" x1="311" y1="173.99" x2="284.3" y2="158.24"/><path class="cls-35" d="M285,157.26a.74.74,0,0,1,0,1.39,2.67,2.67,0,0,1-2.37,0c-.67-.39-.67-1,0-1.39A2.65,2.65,0,0,1,285,157.26Z"/><polyline class="cls-34" points="292.09 169.78 270.24 156.9 270.24 150.38"/><path class="cls-35" d="M271.43,149.69a.73.73,0,0,1,0,1.38,2.63,2.63,0,0,1-2.38,0c-.66-.38-.67-1,0-1.38A2.65,2.65,0,0,1,271.43,149.69Z"/></g><line class="cls-34" x1="259.03" y1="67.03" x2="259.03" y2="164.47"/><line class="cls-34" x1="263.1" y1="65.04" x2="263.1" y2="155.99"/><line class="cls-34" x1="270.25" y1="65.93" x2="270.25" y2="155.51"/><path class="cls-7" d="M305.19,44.91l-77.55,57.67-11-6.53V92c0-8,5.63-17.81,12.62-21.85l0-7.71c0-12.29,8.6-27.26,19.3-33.44l8.91-5.14c6.26-3.62,11.55-2.5,15.4-.15C275.32,25.2,283,29.54,283,29.54L276.85,42.6l15.63-9c4.17-2.41,7.31-1.7,10.19,0,2.55,1.52,10.3,5.92,10.3,5.92Z"/><path class="cls-13" d="M233.22,88.77l7-12.14-11-6.53a26.3,26.3,0,0,0-9.47,10.41Z"/><path class="cls-13" d="M249.25,50.52l31.45-18L261.55,22a17.71,17.71,0,0,0-4.15,1.77L248.49,29c-5.17,3-9.85,8-13.32,13.85C241,45.87,249.15,50.23,249.25,50.52Z"/><polygon class="cls-13" points="278.94 38.18 273.29 40.1 281.61 53.24 303.52 40.1 292.48 33.57 276.85 42.59 278.94 38.18"/><path class="cls-36" d="M268.43,30.34c10.7-6.17,19.4-1.21,19.44,11.07l0,7.71,15.63-9c7-4,12.67-.79,12.69,7.24l0,4.09-88.59,51.15v-4.1c0-8,5.63-17.81,12.61-21.85l0-7.71c0-12.29,8.61-27.26,19.31-33.44Z"/><polygon class="cls-6" points="344.71 256.22 325.56 267.34 306.3 256.22 325.44 245.09 344.71 256.22"/><polygon class="cls-7" points="321.1 207.24 321.19 242.19 320.91 245.04 274.24 274.97 269.83 271.84 269.73 236.89 321.1 207.24"/><polygon class="cls-37" points="325.5 210.37 325.6 245.32 325.63 255.34 316.87 250.36 274.24 274.97 274.14 240.02 325.5 210.37"/><path class="cls-3" d="M288.24,246.71c1.13-.66,2-.13,2.05,1.16a4.48,4.48,0,0,1-2,3.52c-1.12.65-2,.13-2-1.17A4.47,4.47,0,0,1,288.24,246.71Z"/><path class="cls-3" d="M300,240.53c1.13-.65,2-.12,2,1.17a4.44,4.44,0,0,1-2,3.51c-1.12.65-2,.13-2-1.16A4.48,4.48,0,0,1,300,240.53Z"/><path class="cls-3" d="M311.84,234c1.12-.65,2-.13,2,1.16a4.47,4.47,0,0,1-2,3.52c-1.12.65-2,.13-2-1.16A4.46,4.46,0,0,1,311.84,234Z"/><polygon class="cls-13" points="325.5 210.37 321.1 207.24 269.73 236.89 274.14 240.02 325.5 210.37"/><polygon class="cls-6" points="358.75 196.23 339.6 207.35 320.34 196.23 339.48 185.1 358.75 196.23"/><polygon class="cls-7" points="335.01 148.39 335.11 183.34 334.82 186.19 288.15 216.12 283.74 213 283.64 178.04 335.01 148.39"/><polygon class="cls-38" points="339.41 151.52 339.51 186.47 339.54 196.5 330.78 191.51 288.15 216.12 288.05 181.17 339.41 151.52"/><path class="cls-3" d="M302.15,187.86c1.13-.65,2-.13,2.05,1.16a4.49,4.49,0,0,1-2,3.52c-1.13.65-2.05.13-2.05-1.16A4.51,4.51,0,0,1,302.15,187.86Z"/><path class="cls-3" d="M314,181.68c1.13-.65,2-.12,2,1.17a4.47,4.47,0,0,1-2,3.52c-1.12.64-2,.13-2-1.17A4.51,4.51,0,0,1,314,181.68Z"/><path class="cls-3" d="M325.75,175.1c1.13-.65,2-.12,2,1.17a4.44,4.44,0,0,1-2,3.51c-1.12.65-2,.14-2-1.16A4.46,4.46,0,0,1,325.75,175.1Z"/><polygon class="cls-13" points="339.41 151.52 335.01 148.39 283.64 178.04 288.05 181.17 339.41 151.52"/><polygon class="cls-6" points="301.4 319.69 259.22 344.2 216.78 319.69 258.95 295.18 301.4 319.69"/><path class="cls-7" d="M277.38,319.94h0V272.77H240.79v47.17h0c0,2.71,1.82,5.42,5.4,7.49,7.17,4.14,18.75,4.14,25.87,0,3.56-2.07,5.33-4.78,5.32-7.49Z"/><path class="cls-2" d="M259.14,327.6a23.73,23.73,0,0,1-11.48-2.71c-2.49-1.44-3.93-3.25-3.93-5V295.1h30.73v24.84c0,1.72-1.4,3.53-3.86,5A23.52,23.52,0,0,1,259.14,327.6Z"/><path class="cls-5" d="M261.46,327.5a22.29,22.29,0,0,0,9.13-2.6c2.46-1.43,3.87-3.24,3.86-5V295.1h-13Z"/><path class="cls-13" d="M272,265.28c7.17,4.14,7.2,10.85.08,15s-18.7,4.14-25.87,0-7.2-10.84-.08-15S264.81,261.14,272,265.28Z"/><path class="cls-12" d="M269.91,288.81c6,3.47,6,9.1.06,12.57s-15.69,3.48-21.7,0-6.05-9.1-.07-12.58S263.89,285.34,269.91,288.81Z"/><path class="cls-7" d="M259.11,273.85a8.19,8.19,0,0,1-4-.93c-.86-.5-1.36-1.12-1.36-1.72v-2.95h10.59v3c0,.59-.48,1.21-1.33,1.71A8.14,8.14,0,0,1,259.11,273.85Z"/><path class="cls-13" d="M262.82,266.08c2.07,1.2,2.08,3.14,0,4.34a8.28,8.28,0,0,1-7.48,0c-2.08-1.2-2.09-3.14,0-4.34A8.24,8.24,0,0,1,262.82,266.08Z"/><polygon class="cls-6" points="478.49 207.79 420.65 240.42 388.52 222.29 446.36 189.66 478.49 207.79"/><polygon class="cls-13" points="469.41 175.99 465.91 174.52 464.91 176.16 466.88 176.76 469.41 175.99"/><path class="cls-39" d="M380.72,197.77s2.53,7.57,8.86,11,26.12,13.82,26.12,13.82l-9.27-10.32-11-10.55Z"/><path class="cls-13" d="M448.24,180.82A46.35,46.35,0,0,1,438.61,199c-7.6,8.88-13.23,15.2-27.57,17,0,0,6.53,9,20.13,7.33s26-17.13,34.26-34.1l1.45-12.48-10.44-3.21Z"/><path class="cls-40" d="M409.2,213.22a22.58,22.58,0,0,0,21.75,9c14.6-2,25-16.23,29.85-26a68.74,68.74,0,0,0,6.08-19.48l2.53-.77a76.85,76.85,0,0,1-5.9,20.41c-4.76,10.5-14.46,25.47-32.47,28.7-17.39,3.12-26.19-13.4-26.19-13.4Z"/><polygon class="cls-3" points="416.54 162.84 416.43 209.18 408.33 213.71 375.05 148.09 383.15 143.56 416.54 162.84"/><polygon class="cls-2" points="408.44 167.37 408.33 213.71 374.94 194.43 375.05 148.09 408.44 167.37"/><polygon class="cls-12" points="408.44 167.37 416.54 162.84 383.15 143.56 375.05 148.09 408.44 167.37"/><path class="cls-41" d="M461.54,186.08s5.2-13.61,2.69-27.56-10.61-25.28-25.59-25.28c-16,0-30.34,22.07-30.2,26.06l-3.06,1.82-3.47-19.85,38.24-14L451,133s12.05,5.29,15.36,23.74c3,16.91-2.25,28.35-2.25,28.35Z"/><path class="cls-13" d="M384.4,149.15s2-11.2,14.84-21.5,24.83-8.18,28.32-6.66S451,133,451,133s-9.33-4.46-19.23-.91-24.3,16.21-26.42,29.08Z"/><path class="cls-39" d="M464.23,158.52c-2.16-12-8.44-22-19.67-24.63,3.26,5.15,4.66,10,5.92,21,1.35,11.79-4.24,25.14-4.24,25.14l15.3,6.05S466.74,172.47,464.23,158.52Z"/><polyline class="cls-42" points="391.69 164.6 391.69 180.9 397.69 193.7"/></g></g></svg>